<?xml version="1.0" encoding="UTF-8"?>
<svg width="42.526" height="52.677" version="1.1" xmlns="http://www.w3.org/2000/svg" xmlns:cc="http://creativecommons.org/ns#" xmlns:dc="http://purl.org/dc/elements/1.1/" xmlns:rdf="http://www.w3.org/1999/02/22-rdf-syntax-ns#">
 <metadata>
  <rdf:RDF>
   <cc:Work rdf:about="">
    <dc:format>image/svg+xml</dc:format>
    <dc:type rdf:resource="http://purl.org/dc/dcmitype/StillImage"/>
    <dc:title/>
   </cc:Work>
  </rdf:RDF>
 </metadata>
 <g transform="translate(-50.555 -51.524)" stroke="#fff">
  <g transform="matrix(.22988 0 0 .22988 -41.689 -44.405)" fill="none" stroke="#fff">
   <path transform="translate(4e-6 -1e3)" d="m470.26 1468.1c-34.127 0-61.602 27.358-61.602 61.34 2.1071 38.514 38.42 52.627 36.424 60.109v30.084c0 19.438-1e-3 19.428 26.389 19.428 26.347 0 26.389 0.024 26.389-19.781v-29.73s35.757-30.422 36.424-60.109c0-33.982-27.475-61.34-61.602-61.34z" stroke-linecap="square" stroke-width="6.073"/>
   <g transform="translate(0,1877.5)" stroke-width="6.0731">
    <path d="m477.87-1385.2c18.947-2.726 32.751 19.293 28.278 35.983"/>
    <path d="m445.08-1261.6 53.691-6.954"/>
    <g stroke-linecap="square">
     <path d="m514.67-1420.9c1.7786-5.3152 12.429-30.983 12.429-30.983"/>
     <path d="m535.69-1406.6c3.749-4.167 23.744-23.469 23.744-23.469"/>
     <path d="m545.94-1385.4c5.3285-1.7412 32.29-8.4953 32.29-8.4953"/>
    </g>
    <path d="m445.08-1250 53.691-6.954"/>
   </g>
  </g>
 </g>
</svg>
