<svg xmlns="http://www.w3.org/2000/svg" width="160.726" height="199.14" viewBox="0 0 42.525 52.689"><g fill="none" stroke="#008bd0" style="fill:none;stroke:#4e3388;stroke-opacity:1;fill-opacity:0" stroke-width="6.073"><path d="M470.256 1468.14c-34.127 0-61.602 27.358-61.602 61.34 2.107 38.514 38.42 52.627 36.424 60.11v30.084c0 19.438 0 19.428 26.389 19.428 26.347 0 26.388.024 26.388-19.782v-29.73s35.758-30.422 36.424-60.11c0-33.982-27.474-61.34-61.601-61.34z" stroke-linecap="square" transform="translate(-92.242 -325.8) scale(.22988)" style="fill:none;stroke:#4e3388;stroke-opacity:1;fill-opacity:0"/><g style="fill:none;stroke:#4e3388;stroke-opacity:1;fill-opacity:0"><path d="M477.874-1385.216c18.947-2.726 32.751 19.293 28.278 35.983m-61.073 87.611 53.691-6.954" style="fill:none;stroke:#4e3388;stroke-opacity:1;fill-opacity:0" transform="translate(-92.242 335.665) scale(.22988)"/><path d="M514.67-1420.896c1.78-5.315 12.43-30.983 12.43-30.983m8.593 45.314c3.749-4.167 23.744-23.47 23.744-23.47m-13.5 44.675c5.328-1.74 32.29-8.495 32.29-8.495" style="fill:none;stroke:#4e3388;stroke-opacity:1;fill-opacity:0" transform="translate(-92.242 335.665) scale(.22988)" stroke-linecap="square"/><path d="m445.079-1250 53.691-6.954" style="fill:none;stroke:#4e3388;stroke-opacity:1;fill-opacity:0" transform="translate(-92.242 335.665) scale(.22988)"/></g></g></svg>